<svg width="105" height="115" viewBox="0 0 105 115" fill="none" xmlns="http://www.w3.org/2000/svg">
<circle cx="50" cy="65" r="47.5" fill="white" stroke="black" stroke-width="5"/>
<path d="M32.5 94.1663C30.8959 94.1663 29.5231 93.5956 28.3817 92.4542C27.2403 91.3128 26.6686 89.9391 26.6667 88.333V53.333C26.6667 51.7288 27.2384 50.3561 28.3817 49.2147C29.525 48.0733 30.8978 47.5016 32.5 47.4997H38.3334C38.3334 44.2913 39.4757 41.5448 41.7604 39.2601C44.0452 36.9754 46.7917 35.833 50 35.833C53.2084 35.833 55.9549 36.9754 58.2396 39.2601C60.5243 41.5448 61.6667 44.2913 61.6667 47.4997H67.5C69.1042 47.4997 70.478 48.0713 71.6213 49.2147C72.7646 50.358 73.3353 51.7308 73.3334 53.333V88.333C73.3334 89.9371 72.7627 91.3109 71.6213 92.4542C70.4799 93.5976 69.1062 94.1683 67.5 94.1663H32.5ZM32.5 88.333H67.5V53.333H61.6667V59.1663C61.6667 59.9927 61.3867 60.6859 60.8267 61.2459C60.2667 61.8059 59.5745 62.0849 58.75 62.083C57.9256 62.0811 57.2334 61.8011 56.6734 61.243C56.1134 60.6849 55.8334 59.9927 55.8334 59.1663V53.333H44.1667V59.1663C44.1667 59.9927 43.8867 60.6859 43.3267 61.2459C42.7667 61.8059 42.0745 62.0849 41.25 62.083C40.4256 62.0811 39.7334 61.8011 39.1734 61.243C38.6134 60.6849 38.3334 59.9927 38.3334 59.1663V53.333H32.5V88.333ZM44.1667 47.4997H55.8334C55.8334 45.8955 55.2627 44.5227 54.1213 43.3813C52.9799 42.2399 51.6061 41.6683 50 41.6663C48.3939 41.6644 47.0211 42.2361 45.8817 43.3813C44.7423 44.5266 44.1706 45.8994 44.1667 47.4997Z" fill="black"/>
<g clip-path="url(#clip0_62_134)">
<circle cx="85" cy="20" r="18" fill="white"/>
<path d="M81.8054 27.845L74.0909 20.1286L76.6618 17.5577L81.8054 22.6995L92.0891 12.4141L94.6618 14.9868L81.8054 27.845Z" fill="#B88E2F"/>
<path fill-rule="evenodd" clip-rule="evenodd" d="M65 20C65 8.95455 73.9545 0 85 0C96.0455 0 105 8.95455 105 20C105 31.0455 96.0455 40 85 40C73.9545 40 65 31.0455 65 20ZM85 36.3636C82.8511 36.3636 80.7232 35.9404 78.7379 35.118C76.7526 34.2957 74.9487 33.0903 73.4292 31.5708C71.9097 30.0513 70.7043 28.2474 69.882 26.2621C69.0596 24.2768 68.6364 22.1489 68.6364 20C68.6364 17.8511 69.0596 15.7232 69.882 13.7379C70.7043 11.7526 71.9097 9.94867 73.4292 8.42916C74.9487 6.90966 76.7526 5.70432 78.7379 4.88197C80.7232 4.05962 82.8511 3.63636 85 3.63636C89.3399 3.63636 93.5021 5.36038 96.5708 8.42916C99.6396 11.4979 101.364 15.6601 101.364 20C101.364 24.3399 99.6396 28.5021 96.5708 31.5708C93.5021 34.6396 89.3399 36.3636 85 36.3636Z" fill="#B88E2F"/>
</g>
<defs>
<clipPath id="clip0_62_134">
<rect width="40" height="40" fill="white" transform="translate(65)"/>
</clipPath>
</defs>
</svg>
