<svg width="105" height="115" viewBox="0 0 105 115" fill="none" xmlns="http://www.w3.org/2000/svg">
<circle cx="50" cy="65" r="47.5" fill="white" stroke="black" stroke-width="5"/>
<path d="M64.875 81.75C66.4 81.75 67.8625 82.3558 68.9408 83.4341C70.0192 84.5125 70.625 85.975 70.625 87.5C70.625 89.025 70.0192 90.4875 68.9408 91.5658C67.8625 92.6442 66.4 93.25 64.875 93.25C63.35 93.25 61.8875 92.6442 60.8091 91.5658C59.7308 90.4875 59.125 89.025 59.125 87.5C59.125 84.3087 61.6837 81.75 64.875 81.75ZM18.875 35.75H28.2762L30.9787 41.5H73.5C74.2625 41.5 74.9937 41.8029 75.5329 42.3421C76.0721 42.8812 76.375 43.6125 76.375 44.375C76.375 44.8637 76.2312 45.3525 76.03 45.8125L65.7375 64.4137C64.76 66.1675 62.8625 67.375 60.7062 67.375H39.2875L36.7 72.0612L36.6137 72.4062C36.6137 72.5969 36.6895 72.7797 36.8243 72.9145C36.9591 73.0493 37.1419 73.125 37.3325 73.125H70.625V78.875H36.125C34.6 78.875 33.1375 78.2692 32.0591 77.1908C30.9808 76.1125 30.375 74.65 30.375 73.125C30.375 72.1187 30.6337 71.17 31.065 70.365L34.975 63.3212L24.625 41.5H18.875V35.75ZM36.125 81.75C37.65 81.75 39.1125 82.3558 40.1909 83.4341C41.2692 84.5125 41.875 85.975 41.875 87.5C41.875 89.025 41.2692 90.4875 40.1909 91.5658C39.1125 92.6442 37.65 93.25 36.125 93.25C34.6 93.25 33.1375 92.6442 32.0591 91.5658C30.9808 90.4875 30.375 89.025 30.375 87.5C30.375 84.3087 32.9337 81.75 36.125 81.75ZM62 61.625L69.9925 47.25H33.6525L40.4375 61.625H62Z" fill="black"/>
<g clip-path="url(#clip0_88_115)">
<circle cx="85" cy="20" r="18" fill="white"/>
<path d="M81.8054 27.845L74.0909 20.1286L76.6618 17.5577L81.8054 22.6995L92.0891 12.4141L94.6618 14.9868L81.8054 27.845Z" fill="#B88E2F"/>
<path fill-rule="evenodd" clip-rule="evenodd" d="M65 20C65 8.95455 73.9545 0 85 0C96.0455 0 105 8.95455 105 20C105 31.0455 96.0455 40 85 40C73.9545 40 65 31.0455 65 20ZM85 36.3636C82.8511 36.3636 80.7232 35.9404 78.7379 35.118C76.7526 34.2957 74.9487 33.0903 73.4292 31.5708C71.9097 30.0513 70.7043 28.2474 69.882 26.2621C69.0596 24.2768 68.6364 22.1489 68.6364 20C68.6364 17.8511 69.0596 15.7232 69.882 13.7379C70.7043 11.7526 71.9097 9.94867 73.4292 8.42916C74.9487 6.90966 76.7526 5.70432 78.7379 4.88197C80.7232 4.05962 82.8511 3.63636 85 3.63636C89.3399 3.63636 93.5021 5.36038 96.5708 8.42916C99.6396 11.4979 101.364 15.6601 101.364 20C101.364 24.3399 99.6396 28.5021 96.5708 31.5708C93.5021 34.6396 89.3399 36.3636 85 36.3636Z" fill="#B88E2F"/>
</g>
<defs>
<clipPath id="clip0_88_115">
<rect width="40" height="40" fill="white" transform="translate(65)"/>
</clipPath>
</defs>
</svg>
